<svg xmlns="http://www.w3.org/2000/svg" version="1.1" xmlns:xlink="http://www.w3.org/1999/xlink" width="2000" height="571" viewBox="0 0 2000 571"><svg xml:space="preserve" width="2000" height="571" data-version="2" data-id="lg_aQbg0cof7L1Ng0mWWX" viewBox="0 0 571 571" x="0" y="0"><rect width="100%" height="100%" fill="transparent"></rect><circle r="50" fill="#242425" transform="matrix(5.6 0 0 5.6 285.5 285.5)"></circle><circle r="50" stroke="#fff" stroke-width="2" paint-order="stroke" transform="translate(285.5 285.5)scale(4.6994)"></circle><path fill="#fff" d="M265.01 250.42q0 10-5.89 16.88-5.9 6.88-15.37 11.44-9.48 4.56-21.27 7.15-11.8 2.59-23.5 3.84-11.71 1.25-22.16 1.61-10.46.36-17.25.36 0 6.25-.09 12.24t-.09 12.24v5.54q0 3.93.18 8.31.18 4.38.81 8.13.62 3.76 1.7 4.83H130.8q1.07-1.07 1.79-6.97.71-5.9 1.16-14.12.45-8.22.54-17.87.09-9.65.09-18.32t-.09-15.46q-.09-6.79-.09-9.29 0-1.61.09-5.72.09-4.11 0-9.47t-.36-11.26q-.27-5.9-.98-10.9-.72-5.01-1.97-8.4-1.25-3.4-3.04-3.93h25.74q2.5 0 6.7-.09t6.7.27q9.47 0 18.76.35 9.3.36 18.77 1.25 5.54.54 12.24 1.43 6.7.9 13.4 2.6 6.71 1.69 12.96 4.37 6.25 2.68 11.08 6.62 4.83 3.93 7.77 9.47 2.95 5.54 2.95 12.87m-32.34-.18q0-5.19-3.76-8.67-3.75-3.49-9.56-5.72-5.81-2.23-13.04-3.4-7.24-1.16-14.3-1.6-7.06-.45-12.96-.45h-17.87q-1.25 10.9-1.43 21.8-.18 10.9-.18 21.81 7.15 0 14.21-.18 7.06-.18 14.21-.72 5.18-.36 12.87-1.25 7.68-.89 14.74-3.22 7.06-2.32 12.06-6.7 5.01-4.38 5.01-11.7"></path><rect width="137.07" height="131.85" x="-68.53" y="-65.92" fill="none" rx="0" ry="0" transform="translate(196.97 277.56)"></rect><path fill="#fff" d="M397.08 320.65q0-4.65-.18-9.03-.18-4.37-.71-9.02h-8.76q-2.14 0-5.27-.09-3.13-.09-6.44 0-3.3.09-6.34.27-3.04.18-5.18.71l2.68-18.58q3.93.89 8.75.89h8.94q2.14.18 7.06.27 4.91.09 11.17.18 6.25.09 13.13.09 6.88 0 12.87-.09 5.99-.09 10.37-.27 4.37-.18 5.63-.72l.17 19.3q-3.93-.89-9.47-.98-5.54-.09-9.65-.27-1.07 6.79-1.43 13.94-.35 7.15-.35 14.12v3.22q-7.69 2.5-16.18 4.38-8.49 1.87-17.33 3.03-8.85 1.17-17.61 1.7-8.75.54-16.79.54-8.05 0-17.79-1.07-9.74-1.08-19.74-3.58-10.01-2.5-19.48-6.52-9.48-4.02-16.8-9.92-7.33-5.9-11.8-13.85-4.47-7.95-4.47-18.32 0-12.51 4.74-23.32t12.78-19.75q8.04-8.93 18.67-15.9 10.64-6.97 22.34-11.71 11.71-4.73 23.77-7.24 12.06-2.5 23.14-2.5 10.55 0 21.45 1.7 10.9 1.7 19.84 6.26 8.93 4.55 14.65 12.59 5.72 8.05 5.72 20.91 0 4.65-.72 9.39-.71 4.73-2.14 9.2h-35.21q3.22-4.11 6.08-9.56t2.86-11.17q0-6.26-4.2-10.37-4.2-4.11-10.19-6.43-5.98-2.32-12.51-3.22-6.52-.89-11.34-.89-11.8 0-23.86 4.29-12.07 4.29-21.8 12.06-9.74 7.78-16 18.41-6.25 10.63-6.25 23.32 0 7.51 2.85 13.32 2.86 5.8 7.6 10t10.99 6.97q6.26 2.77 12.96 4.47 6.7 1.7 13.49 2.41 6.79.72 12.87.72 9.65 0 19.21-1.16 9.56-1.17 19.21-3.13"></path><rect width="178.89" height="133.68" x="-89.44" y="-66.84" fill="none" rx="0" ry="0" transform="translate(356.02 277.9)"></rect></svg></svg>